<svg width="1000" height="43" viewBox="0 0 1000 43" fill="none" xmlns="http://www.w3.org/2000/svg">
<g opacity="0.5">
<path d="M285.709 39V14.808H277.021V8.088H303.421V14.808H294.733V39H285.709ZM315.508 39V27.672L304.372 8.088H313.78L320.02 19.752L326.26 8.088H335.668L324.532 27.672V39H315.508ZM338.098 39V8.088H346.882L354.562 23.784L362.194 8.088H370.93V39H361.906V23.544L356.962 33.72H352.114L347.122 23.544V39H338.098ZM389.669 39.48C386.789 39.48 384.245 39.016 382.037 38.088C379.861 37.128 378.149 35.736 376.901 33.912C375.653 32.056 375.029 29.784 375.029 27.096V8.088H384.053V26.136C384.053 29.912 385.925 31.8 389.669 31.8C391.461 31.8 392.837 31.336 393.797 30.408C394.757 29.48 395.237 28.056 395.237 26.136V8.088H404.261V27.096C404.261 29.784 403.637 32.056 402.389 33.912C401.173 35.736 399.461 37.128 397.253 38.088C395.077 39.016 392.549 39.48 389.669 39.48ZM408.363 39V8.088H424.443C426.971 8.088 429.035 8.552 430.635 9.48C432.267 10.408 433.483 11.704 434.283 13.368C435.083 15 435.483 16.904 435.483 19.08C435.483 21.16 434.955 23 433.899 24.6C432.875 26.168 431.499 27.368 429.771 28.2C430.123 28.488 430.427 28.84 430.683 29.256C430.939 29.64 431.227 30.184 431.547 30.888L435.099 39H425.691L422.427 31.56C422.171 30.984 421.851 30.584 421.467 30.36C421.115 30.104 420.603 29.976 419.931 29.976H417.387V39H408.363ZM417.387 23.064H422.139C423.451 23.064 424.459 22.728 425.163 22.056C425.899 21.352 426.267 20.36 426.267 19.08C426.267 16.36 424.987 15 422.427 15H417.387V23.064ZM448.676 39V8.088H471.908V14.808H457.7V20.136H470.084V26.952H457.7V39H448.676ZM470.497 39L482.353 8.088H491.905L503.761 39H494.353L491.761 32.424H482.449L479.905 39H470.497ZM483.649 25.944H490.561L487.105 16.872L483.649 25.944ZM507.129 39V8.088H523.209C525.737 8.088 527.801 8.552 529.401 9.48C531.033 10.408 532.249 11.704 533.049 13.368C533.849 15 534.249 16.904 534.249 19.08C534.249 21.16 533.721 23 532.665 24.6C531.641 26.168 530.265 27.368 528.537 28.2C528.889 28.488 529.193 28.84 529.449 29.256C529.705 29.64 529.993 30.184 530.313 30.888L533.865 39H524.457L521.193 31.56C520.937 30.984 520.617 30.584 520.233 30.36C519.881 30.104 519.369 29.976 518.697 29.976H516.153V39H507.129ZM516.153 23.064H520.905C522.217 23.064 523.225 22.728 523.929 22.056C524.665 21.352 525.033 20.36 525.033 19.08C525.033 16.36 523.753 15 521.193 15H516.153V23.064ZM534.481 39L546.337 8.088H555.889L567.745 39H558.337L555.745 32.424H546.433L543.889 39H534.481ZM547.633 25.944H554.545L551.089 16.872L547.633 25.944ZM571.113 39V8.088H584.937C588.105 8.088 590.809 8.616 593.049 9.672C595.289 10.696 597.001 12.36 598.185 14.664C599.369 16.936 599.961 19.96 599.961 23.736C599.961 29.048 598.665 32.92 596.073 35.352C593.481 37.784 589.769 39 584.937 39H571.113ZM580.137 32.088H583.785C585.289 32.088 586.553 31.88 587.577 31.464C588.601 31.016 589.385 30.2 589.929 29.016C590.473 27.8 590.745 26.04 590.745 23.736C590.745 21.432 590.489 19.656 589.977 18.408C589.497 17.128 588.745 16.248 587.721 15.768C586.697 15.256 585.385 15 583.785 15H580.137V32.088ZM602.356 39V34.488L615.796 15H603.076V8.088H627.652V12.792L614.356 32.088H627.94V39H602.356ZM631.066 39V8.088H640.09V19.608H650.746V8.088H659.77V39H650.746V27.48H640.09V39H631.066ZM664.113 39V8.088H687.537V15H673.137V20.04H685.761V27.048H673.137V32.088H687.537V39H664.113ZM700.603 39L688.747 8.088H698.155L705.355 28.536L712.555 8.088H722.011L710.155 39H700.603Z" fill="white"/>
</g>
</svg>
