<svg width="1000" height="48" viewBox="0 0 1000 48" fill="none" xmlns="http://www.w3.org/2000/svg">
<g opacity="0.5">
<path d="M356.549 39.48C350.949 39.48 346.677 38.104 343.733 35.352C340.789 32.6 339.317 28.712 339.317 23.688C339.317 18.504 340.757 14.536 343.637 11.784C346.517 9 350.805 7.608 356.501 7.608C358.421 7.608 360.133 7.752 361.637 8.04C363.141 8.328 364.581 8.728 365.957 9.24V17.112C363.205 15.896 360.261 15.288 357.125 15.288C354.213 15.288 352.053 15.96 350.645 17.304C349.237 18.616 348.533 20.744 348.533 23.688C348.533 26.568 349.269 28.648 350.741 29.928C352.245 31.176 354.405 31.8 357.221 31.8C358.757 31.8 360.245 31.656 361.685 31.368C363.157 31.08 364.613 30.632 366.053 30.024V37.944C364.677 38.424 363.221 38.792 361.685 39.048C360.181 39.336 358.469 39.48 356.549 39.48ZM381.769 39.48C377.225 39.48 373.865 38.472 371.689 36.456C369.545 34.44 368.473 31.496 368.473 27.624C368.473 23.784 369.561 20.856 371.737 18.84C373.913 16.792 377.257 15.768 381.769 15.768C386.313 15.768 389.673 16.792 391.849 18.84C394.057 20.856 395.161 23.784 395.161 27.624C395.161 31.496 394.073 34.44 391.897 36.456C389.721 38.472 386.345 39.48 381.769 39.48ZM381.769 32.904C383.241 32.904 384.297 32.488 384.937 31.656C385.609 30.824 385.945 29.48 385.945 27.624C385.945 25.8 385.609 24.472 384.937 23.64C384.297 22.776 383.241 22.344 381.769 22.344C380.329 22.344 379.289 22.776 378.649 23.64C378.009 24.472 377.689 25.8 377.689 27.624C377.689 29.48 378.009 30.824 378.649 31.656C379.289 32.488 380.329 32.904 381.769 32.904ZM398.543 39V16.248H406.895L407.135 18.072C408.127 17.4 409.231 16.856 410.447 16.44C411.695 15.992 413.055 15.768 414.527 15.768C415.999 15.768 417.151 15.976 417.983 16.392C418.815 16.808 419.487 17.416 419.999 18.216C421.023 17.48 422.175 16.888 423.455 16.44C424.767 15.992 426.303 15.768 428.063 15.768C430.719 15.768 432.671 16.472 433.919 17.88C435.167 19.256 435.791 21.368 435.791 24.216V39H426.911V25.272C426.911 24.248 426.703 23.528 426.287 23.112C425.871 22.664 425.183 22.44 424.223 22.44C422.975 22.44 421.951 22.888 421.151 23.784C421.215 24.2 421.247 24.6 421.247 24.984C421.247 25.336 421.247 25.736 421.247 26.184V39H412.895V25.128C412.895 24.2 412.735 23.528 412.415 23.112C412.095 22.664 411.487 22.44 410.591 22.44C409.983 22.44 409.391 22.6 408.815 22.92C408.239 23.24 407.727 23.624 407.279 24.072V39H398.543ZM441.471 13.224V6.696H451.215V13.224H441.471ZM442.191 39V22.824H438.879L439.647 16.248H451.215V39H442.191ZM455.543 39V16.248H463.991L464.231 17.976C465.095 17.4 466.231 16.888 467.639 16.44C469.079 15.992 470.615 15.768 472.247 15.768C475.095 15.768 477.175 16.472 478.487 17.88C479.799 19.288 480.455 21.464 480.455 24.408V39H471.431V25.32C471.431 24.296 471.207 23.56 470.759 23.112C470.311 22.664 469.527 22.44 468.407 22.44C467.735 22.44 467.031 22.6 466.295 22.92C465.591 23.24 465.015 23.624 464.567 24.072V39H455.543ZM494.496 47.448C493.376 47.448 492.16 47.4 490.848 47.304C489.536 47.24 488.288 47.112 487.104 46.92C485.952 46.728 484.992 46.504 484.224 46.248V40.488C485.088 40.776 486.08 41.016 487.2 41.208C488.352 41.4 489.52 41.544 490.704 41.64C491.888 41.736 492.976 41.784 493.968 41.784C495.664 41.784 496.992 41.688 497.952 41.496C498.944 41.336 499.44 41.032 499.44 40.584C499.44 40.2 499.28 39.944 498.96 39.816C498.64 39.72 498.032 39.672 497.136 39.672H491.136C488.8 39.672 486.992 39.304 485.712 38.568C484.464 37.8 483.84 36.664 483.84 35.16C483.84 33.048 485.008 31.576 487.344 30.744C486.032 30.072 485.072 29.224 484.464 28.2C483.856 27.176 483.552 25.88 483.552 24.312C483.552 21.368 484.544 19.208 486.528 17.832C488.544 16.456 491.44 15.768 495.216 15.768C496.016 15.768 496.912 15.832 497.904 15.96C498.896 16.056 499.616 16.152 500.064 16.248H508.992L508.8 21.72H505.776C506.352 22.456 506.64 23.352 506.64 24.408C506.64 26.744 505.952 28.6 504.576 29.976C503.232 31.32 501.104 31.992 498.192 31.992C497.776 31.992 497.328 31.976 496.848 31.944C496.368 31.88 495.92 31.832 495.504 31.8C494.8 31.864 494.192 31.992 493.68 32.184C493.168 32.376 492.912 32.696 492.912 33.144C492.912 33.464 493.056 33.688 493.344 33.816C493.632 33.912 494.032 33.96 494.544 33.96H499.776C502.112 33.96 503.952 34.504 505.296 35.592C506.64 36.68 507.312 38.28 507.312 40.392C507.312 42.632 506.272 44.36 504.192 45.576C502.112 46.824 498.88 47.448 494.496 47.448ZM495.264 27.048C496.672 27.048 497.648 26.808 498.192 26.328C498.736 25.848 499.008 25.048 499.008 23.928C499.008 22.808 498.736 21.992 498.192 21.48C497.648 20.968 496.672 20.712 495.264 20.712C493.952 20.712 492.992 20.968 492.384 21.48C491.808 21.96 491.52 22.776 491.52 23.928C491.52 25.016 491.792 25.816 492.336 26.328C492.912 26.808 493.888 27.048 495.264 27.048ZM531.811 39.48C529.731 39.48 527.763 39.32 525.907 39C524.051 38.648 522.467 38.168 521.155 37.56V30.12C522.595 30.792 524.195 31.336 525.955 31.752C527.715 32.168 529.363 32.376 530.899 32.376C532.499 32.376 533.699 32.248 534.499 31.992C535.331 31.704 535.747 31.08 535.747 30.12C535.747 29.448 535.507 28.92 535.027 28.536C534.579 28.152 533.859 27.8 532.867 27.48C531.907 27.16 530.643 26.76 529.075 26.28C526.995 25.608 525.347 24.872 524.131 24.072C522.915 23.272 522.035 22.296 521.491 21.144C520.979 19.992 520.723 18.584 520.723 16.92C520.723 13.88 521.795 11.576 523.939 10.008C526.115 8.408 529.331 7.608 533.587 7.608C535.283 7.608 537.027 7.752 538.819 8.04C540.643 8.328 542.115 8.648 543.235 9V16.488C541.731 15.88 540.291 15.448 538.915 15.192C537.539 14.936 536.243 14.808 535.027 14.808C533.619 14.808 532.419 14.92 531.427 15.144C530.435 15.368 529.939 15.944 529.939 16.872C529.939 17.672 530.355 18.264 531.187 18.648C532.051 19 533.571 19.464 535.747 20.04C538.275 20.712 540.195 21.528 541.507 22.488C542.851 23.448 543.763 24.568 544.243 25.848C544.723 27.096 544.963 28.52 544.963 30.12C544.963 32.936 543.875 35.208 541.699 36.936C539.523 38.632 536.227 39.48 531.811 39.48ZM560.644 39.48C556.1 39.48 552.74 38.472 550.564 36.456C548.42 34.44 547.348 31.496 547.348 27.624C547.348 23.784 548.436 20.856 550.612 18.84C552.788 16.792 556.132 15.768 560.644 15.768C565.188 15.768 568.548 16.792 570.724 18.84C572.932 20.856 574.036 23.784 574.036 27.624C574.036 31.496 572.948 34.44 570.772 36.456C568.596 38.472 565.22 39.48 560.644 39.48ZM560.644 32.904C562.116 32.904 563.172 32.488 563.812 31.656C564.484 30.824 564.82 29.48 564.82 27.624C564.82 25.8 564.484 24.472 563.812 23.64C563.172 22.776 562.116 22.344 560.644 22.344C559.204 22.344 558.164 22.776 557.524 23.64C556.884 24.472 556.564 25.8 556.564 27.624C556.564 29.48 556.884 30.824 557.524 31.656C558.164 32.488 559.204 32.904 560.644 32.904ZM589.754 39.48C585.21 39.48 581.85 38.472 579.674 36.456C577.53 34.44 576.458 31.496 576.458 27.624C576.458 23.784 577.546 20.856 579.722 18.84C581.898 16.792 585.242 15.768 589.754 15.768C594.298 15.768 597.658 16.792 599.834 18.84C602.042 20.856 603.146 23.784 603.146 27.624C603.146 31.496 602.058 34.44 599.882 36.456C597.706 38.472 594.33 39.48 589.754 39.48ZM589.754 32.904C591.226 32.904 592.282 32.488 592.922 31.656C593.594 30.824 593.93 29.48 593.93 27.624C593.93 25.8 593.594 24.472 592.922 23.64C592.282 22.776 591.226 22.344 589.754 22.344C588.314 22.344 587.274 22.776 586.634 23.64C585.994 24.472 585.674 25.8 585.674 27.624C585.674 29.48 585.994 30.824 586.634 31.656C587.274 32.488 588.314 32.904 589.754 32.904ZM606.527 39V16.248H614.975L615.215 17.976C616.079 17.4 617.215 16.888 618.623 16.44C620.063 15.992 621.599 15.768 623.231 15.768C626.079 15.768 628.159 16.472 629.471 17.88C630.783 19.288 631.439 21.464 631.439 24.408V39H622.415V25.32C622.415 24.296 622.191 23.56 621.743 23.112C621.295 22.664 620.511 22.44 619.391 22.44C618.719 22.44 618.015 22.6 617.279 22.92C616.575 23.24 615.999 23.624 615.551 24.072V39H606.527ZM634.536 39V32.52H641.64V39H634.536ZM644.052 39V32.52H651.156V39H644.052ZM653.567 39V32.52H660.671V39H653.567Z" fill="white"/>
</g>
</svg>
