<svg width="1000" height="250" viewBox="0 0 1000 250" fill="none" xmlns="http://www.w3.org/2000/svg">
<path d="M95.0146 29.2H20.8546V130H95.0146C120.071 130 142.967 113.872 142.967 79.6C142.967 45.328 120.071 29.2 95.0146 29.2ZM84.2146 103.216H52.5346V55.984H84.2146C98.0386 55.984 111.287 58 111.287 79.6C111.287 101.2 98.0386 103.216 84.2146 103.216ZM150.23 14.8V36.976H179.894V14.8H150.23ZM150.23 44.464V130H179.894V44.464H150.23ZM287.009 44.464H187.073V69.088H243.665L187.073 105.376V130H287.009V105.376H230.561L287.009 69.088V44.464ZM394.166 44.464H294.23V69.088H350.822L294.23 105.376V130H394.166V105.376H337.718L394.166 69.088V44.464ZM398.68 87.232C398.68 118.768 421.576 131.44 457.432 131.44C490.408 131.44 512.296 120.784 515.752 94.72H485.512C482.488 103.936 472.552 106.816 457.432 106.816C439.144 106.816 428.344 102.352 428.344 87.232C428.344 72.112 439.144 67.648 457.432 67.648C472.552 67.648 482.488 70.528 485.512 79.744H515.752C512.296 53.68 490.408 43.024 457.432 43.024C421.576 43.024 398.68 55.696 398.68 87.232ZM579.354 131.44C615.354 131.44 638.106 118.768 638.106 87.232C638.106 55.696 615.354 43.024 579.354 43.024C543.498 43.024 520.602 55.696 520.602 87.232C520.602 118.768 543.498 131.44 579.354 131.44ZM579.354 106.816C560.346 106.816 550.266 102.352 550.266 87.232C550.266 72.112 560.346 67.648 579.354 67.648C598.506 67.648 608.586 72.112 608.586 87.232C608.586 102.352 598.506 106.816 579.354 106.816ZM733.364 44.464V91.552C726.164 99.184 711.908 105.808 698.516 105.808C680.516 105.808 674.756 97.888 674.756 81.472V44.464H645.236L645.092 93.136C645.236 124.384 666.836 131.44 687.86 131.44C707.156 131.44 722.132 125.248 733.364 116.896V130H763.028V44.464H733.364ZM846.679 43.024C827.383 43.024 812.407 49.216 801.175 57.568V44.464H771.511V130H801.175V82.912C808.375 75.28 822.631 68.656 836.023 68.656C854.023 68.656 859.783 76.576 859.783 92.992V130H889.303L889.447 81.328C889.303 50.08 867.703 43.024 846.679 43.024ZM980.382 69.088V44.464H942.654V20.56L913.134 28.336V44.464H893.118V69.088H913.134V104.512C913.134 123.232 926.67 131.44 951.006 131.44C962.382 131.44 972.174 130.72 980.382 129.28V105.376C970.446 106.816 966.126 106.816 958.35 106.816C945.822 106.816 942.654 102.64 942.654 90.256V69.088H980.382Z" fill="white"/>
<path d="M170.915 186.2L154.723 223.32L137.443 186.2H127.587L110.307 223.32L94.1153 186.2H85.7313L105.571 231H114.915L132.515 193.688L150.115 231H159.459L179.299 186.2H170.915ZM201.516 225.24C191.852 225.24 185.132 222.552 183.916 215H227.82C227.82 197.592 215.404 193.24 202.156 193.24C187.116 193.24 176.044 198.872 176.044 212.44C176.044 226.008 187.756 231.64 201.516 231.64C214.124 231.64 224.3 227.288 227.18 218.2H219.372C217.004 223 210.604 225.24 201.516 225.24ZM202.156 199.64C211.244 199.64 217.772 202.072 219.564 208.6H184.172C185.772 202.072 191.98 199.64 202.156 199.64ZM262.293 193.24C252.437 193.24 245.461 195.8 241.301 200.216V179.8H233.621V231H241.301V224.664C245.461 229.08 252.437 231.64 262.293 231.64C276.053 231.64 285.845 226.008 285.845 212.44C285.845 198.872 276.053 193.24 262.293 193.24ZM259.733 225.24C247.765 225.24 241.301 221.272 241.301 212.44C241.301 203.608 247.765 199.64 259.733 199.64C271.701 199.64 278.165 203.608 278.165 212.44C278.165 221.272 271.701 225.24 259.733 225.24ZM387.271 224.792L377.223 220.504C380.487 217.688 383.431 214.296 386.055 210.328L379.143 207.768C376.583 210.968 373.319 214.232 369.479 217.048C362.887 214.04 357.703 211.544 353.671 209.304C365.255 207 372.039 203.48 372.039 196.44C372.039 189.72 363.591 185.56 353.479 185.56C341.383 185.56 334.663 189.72 334.663 197.08C334.663 200.472 335.687 203.352 337.799 205.976C331.207 207.384 324.871 210.904 324.871 218.648C324.871 226.328 330.247 231.64 346.247 231.64C355.015 231.64 363.463 229.528 370.887 225.112C374.727 226.904 378.887 228.824 383.431 231L387.271 224.792ZM353.479 191.96C360.071 191.96 364.359 193.624 364.359 196.44C364.359 200.536 355.399 202.776 346.375 204.44C343.559 202.072 342.343 199.896 342.343 197.72C342.343 193.624 346.887 191.96 353.479 191.96ZM346.247 225.24C338.823 225.24 332.551 223.64 332.551 218.2C332.551 214.04 338.119 212.184 343.687 211.096C348.103 214.104 354.375 217.24 362.631 221.208C357.703 223.64 352.135 225.24 346.247 225.24ZM495.542 186.2H483.702L461.238 222.104L438.774 186.2H426.934V231H434.614V193.816L458.038 231H464.438L487.862 193.816V231H495.542V186.2ZM528.093 231.64C543.133 231.64 554.205 226.008 554.205 212.44C554.205 198.872 543.133 193.24 528.093 193.24C513.053 193.24 501.981 198.872 501.981 212.44C501.981 226.008 513.053 231.64 528.093 231.64ZM528.093 225.24C515.485 225.24 509.661 221.912 509.661 212.44C509.661 202.968 515.485 199.64 528.093 199.64C540.701 199.64 546.525 202.968 546.525 212.44C546.525 221.912 540.701 225.24 528.093 225.24ZM588.668 193.24C578.812 193.24 571.836 195.8 567.676 200.216V179.8H559.996V231H567.676V224.664C571.836 229.08 578.812 231.64 588.668 231.64C602.428 231.64 612.22 226.008 612.22 212.44C612.22 198.872 602.428 193.24 588.668 193.24ZM586.108 225.24C574.14 225.24 567.676 221.272 567.676 212.44C567.676 203.608 574.14 199.64 586.108 199.64C598.076 199.64 604.54 203.608 604.54 212.44C604.54 221.272 598.076 225.24 586.108 225.24ZM617.996 179.8V188.76H625.676V179.8H617.996ZM617.996 193.88V231H625.676V193.88H617.996ZM632.746 179.8V231H640.426V179.8H632.746ZM671.703 225.24C662.039 225.24 655.319 222.552 654.103 215H698.007C698.007 197.592 685.591 193.24 672.343 193.24C657.303 193.24 646.231 198.872 646.231 212.44C646.231 226.008 657.943 231.64 671.703 231.64C684.311 231.64 694.487 227.288 697.367 218.2H689.559C687.191 223 680.791 225.24 671.703 225.24ZM672.343 199.64C681.431 199.64 687.959 202.072 689.751 208.6H654.359C655.959 202.072 662.167 199.64 672.343 199.64ZM789.731 231H798.243L771.683 186.2H762.979L736.419 231H744.931L751.267 220.376H783.395L789.731 231ZM755.043 213.976L767.331 193.24L779.619 213.976H755.043ZM832.731 193.24C822.875 193.24 815.899 195.8 811.739 200.216V193.88H804.059V247H811.739V224.664C815.899 229.08 822.875 231.64 832.731 231.64C846.491 231.64 856.283 226.008 856.283 212.44C856.283 198.872 846.491 193.24 832.731 193.24ZM830.171 225.24C818.203 225.24 811.739 221.272 811.739 212.44C811.739 203.608 818.203 199.64 830.171 199.64C842.139 199.64 848.603 203.608 848.603 212.44C848.603 221.272 842.139 225.24 830.171 225.24ZM890.731 193.24C880.875 193.24 873.899 195.8 869.739 200.216V193.88H862.059V247H869.739V224.664C873.899 229.08 880.875 231.64 890.731 231.64C904.491 231.64 914.283 226.008 914.283 212.44C914.283 198.872 904.491 193.24 890.731 193.24ZM888.171 225.24C876.203 225.24 869.739 221.272 869.739 212.44C869.739 203.608 876.203 199.64 888.171 199.64C900.139 199.64 906.603 203.608 906.603 212.44C906.603 221.272 900.139 225.24 888.171 225.24Z" fill="white"/>
</svg>
