<svg width="1000" height="43" viewBox="0 0 1000 43" fill="none" xmlns="http://www.w3.org/2000/svg">
<g opacity="0.5">
<path d="M367.978 39L356.122 8.088H365.53L372.73 28.536L379.93 8.088H389.386L377.53 39H367.978ZM400.726 39.48C398.646 39.48 396.678 39.32 394.822 39C392.966 38.648 391.382 38.168 390.07 37.56V30.12C391.51 30.792 393.11 31.336 394.87 31.752C396.63 32.168 398.278 32.376 399.814 32.376C401.414 32.376 402.614 32.248 403.414 31.992C404.246 31.704 404.662 31.08 404.662 30.12C404.662 29.448 404.422 28.92 403.942 28.536C403.494 28.152 402.774 27.8 401.782 27.48C400.822 27.16 399.558 26.76 397.99 26.28C395.91 25.608 394.262 24.872 393.046 24.072C391.83 23.272 390.95 22.296 390.406 21.144C389.894 19.992 389.638 18.584 389.638 16.92C389.638 13.88 390.71 11.576 392.854 10.008C395.03 8.408 398.246 7.608 402.502 7.608C404.198 7.608 405.942 7.752 407.734 8.04C409.558 8.328 411.03 8.648 412.15 9V16.488C410.646 15.88 409.206 15.448 407.83 15.192C406.454 14.936 405.158 14.808 403.942 14.808C402.534 14.808 401.334 14.92 400.342 15.144C399.35 15.368 398.854 15.944 398.854 16.872C398.854 17.672 399.27 18.264 400.102 18.648C400.966 19 402.486 19.464 404.662 20.04C407.19 20.712 409.11 21.528 410.422 22.488C411.766 23.448 412.678 24.568 413.158 25.848C413.638 27.096 413.878 28.52 413.878 30.12C413.878 32.936 412.79 35.208 410.614 36.936C408.438 38.632 405.142 39.48 400.726 39.48ZM417.223 39V8.088H433.159C435.687 8.088 437.767 8.6 439.399 9.624C441.063 10.616 442.295 11.976 443.095 13.704C443.895 15.432 444.295 17.352 444.295 19.464C444.295 21.64 443.831 23.576 442.903 25.272C441.975 26.968 440.663 28.296 438.967 29.256C437.271 30.216 435.271 30.696 432.967 30.696H426.247V39H417.223ZM426.247 23.784H430.903C432.311 23.784 433.351 23.384 434.023 22.584C434.727 21.784 435.079 20.744 435.079 19.464C435.079 18.088 434.759 17 434.119 16.2C433.479 15.4 432.487 15 431.143 15H426.247V23.784ZM446.707 39V8.088H454.387L466.051 24.456V8.088H475.075V39H467.347L455.731 22.68V39H446.707ZM493.779 39.48C490.899 39.48 488.355 39.016 486.147 38.088C483.971 37.128 482.259 35.736 481.011 33.912C479.763 32.056 479.139 29.784 479.139 27.096V8.088H488.163V26.136C488.163 29.912 490.035 31.8 493.779 31.8C495.571 31.8 496.947 31.336 497.907 30.408C498.867 29.48 499.347 28.056 499.347 26.136V8.088H508.371V27.096C508.371 29.784 507.747 32.056 506.499 33.912C505.283 35.736 503.571 37.128 501.363 38.088C499.187 39.016 496.659 39.48 493.779 39.48ZM527.836 31.704C526.62 31.704 525.516 31.416 524.524 30.84C523.564 30.264 522.796 29.496 522.22 28.536C521.644 27.544 521.356 26.44 521.356 25.224C521.356 24.008 521.644 22.92 522.22 21.96C522.796 20.968 523.564 20.184 524.524 19.608C525.516 19 526.62 18.696 527.836 18.696C529.052 18.696 530.14 19 531.1 19.608C532.092 20.184 532.876 20.968 533.452 21.96C534.06 22.92 534.364 24.008 534.364 25.224C534.364 26.44 534.06 27.544 533.452 28.536C532.876 29.496 532.092 30.264 531.1 30.84C530.14 31.416 529.052 31.704 527.836 31.704ZM546.622 39V34.872C547.518 33.176 548.606 31.656 549.886 30.312C551.166 28.968 552.59 27.592 554.158 26.184C555.47 25 556.526 24.024 557.326 23.256C558.158 22.488 558.766 21.768 559.15 21.096C559.566 20.392 559.774 19.592 559.774 18.696C559.774 16.424 558.286 15.288 555.31 15.288C553.934 15.288 552.59 15.448 551.278 15.768C549.998 16.088 548.782 16.488 547.63 16.968V9.288C548.942 8.776 550.478 8.376 552.238 8.088C553.998 7.768 555.774 7.608 557.566 7.608C561.406 7.608 564.27 8.52 566.158 10.344C568.046 12.136 568.99 14.552 568.99 17.592C568.99 19.032 568.814 20.28 568.462 21.336C568.142 22.36 567.63 23.304 566.926 24.168C566.222 25.032 565.31 25.96 564.19 26.952C563.198 27.816 562.222 28.68 561.262 29.544C560.302 30.408 559.534 31.256 558.958 32.088H569.278V39H546.622ZM586.484 39.48C582.932 39.48 580.068 38.872 577.892 37.656C575.748 36.408 574.18 34.6 573.188 32.232C572.196 29.864 571.7 26.968 571.7 23.544C571.7 20.12 572.196 17.224 573.188 14.856C574.18 12.488 575.748 10.696 577.892 9.48C580.068 8.232 582.932 7.608 586.484 7.608C591.796 7.608 595.588 8.984 597.86 11.736C600.132 14.456 601.268 18.392 601.268 23.544C601.268 28.664 600.132 32.6 597.86 35.352C595.588 38.104 591.796 39.48 586.484 39.48ZM586.484 31.8C588.564 31.8 590.004 31.112 590.804 29.736C591.636 28.328 592.052 26.264 592.052 23.544C592.052 20.792 591.636 18.728 590.804 17.352C590.004 15.976 588.564 15.288 586.484 15.288C584.404 15.288 582.948 15.976 582.116 17.352C581.316 18.728 580.916 20.792 580.916 23.544C580.916 26.264 581.316 28.328 582.116 29.736C582.948 31.112 584.404 31.8 586.484 31.8ZM603.669 39V34.872C604.565 33.176 605.653 31.656 606.933 30.312C608.213 28.968 609.637 27.592 611.205 26.184C612.517 25 613.573 24.024 614.373 23.256C615.205 22.488 615.813 21.768 616.197 21.096C616.613 20.392 616.821 19.592 616.821 18.696C616.821 16.424 615.333 15.288 612.357 15.288C610.981 15.288 609.637 15.448 608.325 15.768C607.045 16.088 605.829 16.488 604.677 16.968V9.288C605.989 8.776 607.525 8.376 609.285 8.088C611.045 7.768 612.821 7.608 614.613 7.608C618.453 7.608 621.317 8.52 623.205 10.344C625.093 12.136 626.037 14.552 626.037 17.592C626.037 19.032 625.861 20.28 625.509 21.336C625.189 22.36 624.677 23.304 623.973 24.168C623.269 25.032 622.357 25.96 621.237 26.952C620.245 27.816 619.269 28.68 618.309 29.544C617.349 30.408 616.581 31.256 616.005 32.088H626.325V39H603.669ZM633.883 39V16.44L628.747 17.208V9.672L642.907 7.608V39H633.883Z" fill="black"/>
</g>
</svg>
